<svg width="187" height="261" viewBox="0 0 187 261" fill="none" xmlns="http://www.w3.org/2000/svg">
<circle r="4.99547" transform="matrix(0.707211 0.707002 -0.707211 0.707002 7.06641 140.93)" fill="#0E9AFF" fill-opacity="0.15"/>
<circle r="4.99547" transform="matrix(0.707211 0.707002 -0.707211 0.707002 179.935 83.9897)" fill="#0E9AFF" fill-opacity="0.15"/>
<path fill-rule="evenodd" clip-rule="evenodd" d="M99.1568 7.07091C98.3764 6.29068 97.1101 6.28981 96.3286 7.06895L92.0836 11.3011L87.8443 7.06306C87.0638 6.28283 85.7976 6.28195 85.0161 7.0611C84.2345 7.84025 84.2337 9.10437 85.0141 9.8846L89.2534 14.1226L85.0079 18.3551C84.2264 19.1343 84.2255 20.3984 85.006 21.1786C85.7864 21.9589 87.0527 21.9597 87.8342 21.1806L92.0797 16.9481L96.3192 21.1864C97.0997 21.9666 98.3659 21.9675 99.1475 21.1883C99.929 20.4092 99.9299 19.1451 99.1494 18.3648L94.9098 14.1265L99.1549 9.8944C99.9364 9.11525 99.9373 7.85113 99.1568 7.07091Z" fill="#0E9AFF" fill-opacity="0.15"/>
<path fill-rule="evenodd" clip-rule="evenodd" d="M99.1568 239.825C98.3764 239.045 97.1102 239.044 96.3286 239.823L92.0836 244.055L87.8443 239.817C87.0638 239.037 85.7976 239.036 85.0161 239.815C84.2345 240.595 84.2337 241.859 85.0141 242.639L89.2534 246.877L85.0079 251.109C84.2264 251.889 84.2255 253.153 85.006 253.933C85.7864 254.713 87.0527 254.714 87.8342 253.935L92.0797 249.702L96.3192 253.941C97.0997 254.721 98.3659 254.722 99.1475 253.943C99.929 253.164 99.9299 251.899 99.1494 251.119L94.9098 246.881L99.1549 242.649C99.9364 241.87 99.9373 240.605 99.1568 239.825Z" fill="#0E9AFF" fill-opacity="0.15"/>
</svg>
